<svg width="55" height="55" viewBox="0 0 55 55" fill="none" xmlns="http://www.w3.org/2000/svg">
<path d="M55 27.0106C54.9986 33.031 50.4637 38.0453 44.569 38.5444L10.431 38.5924C7.664 38.5943 5.00994 37.476 3.05365 35.4849C1.09691 33.4934 -0.00138777 30.7921 1.31604e-06 27.9758C1.31604e-06 23.1887 3.11014 20.1099 7.38711 18.7781C6.88936 17.3964 6.63562 15.9354 6.63793 14.4637C6.64025 11.366 8.4604 8.56908 11.2617 7.35793C14.063 6.14678 17.3042 6.75565 19.4966 8.90462C21.4311 2.42001 28.0755 -1.32937 34.5037 0.435989C40.9324 2.20182 44.8218 8.84383 43.2887 15.4387C43.4026 15.4288 43.5068 15.4288 43.6207 15.4288C49.9053 15.4288 55 20.6142 55 27.0106Z" fill="#14FFEC"/>
<path d="M44.5688 31.8363H10.4309V22.1848H44.5688V31.8363Z" fill="#212121"/>
<path d="M18.017 27.011C18.017 28.0778 17.1678 28.9418 16.1204 28.9418C15.0731 28.9418 14.2239 28.0778 14.2239 27.011C14.2239 25.9448 15.0731 25.0803 16.1204 25.0803C17.1678 25.0803 18.017 25.9448 18.017 27.011Z" fill="white"/>
<path d="M44.5688 43.4182H10.4309V33.7667H44.5688V43.4182Z" fill="#212121"/>
<path d="M18.017 38.5929C18.017 39.6596 17.1678 40.5236 16.1204 40.5236C15.0731 40.5236 14.2239 39.6596 14.2239 38.5929C14.2239 37.5266 15.0731 36.6621 16.1204 36.6621C17.1678 36.6621 18.017 37.5266 18.017 38.5929Z" fill="white"/>
<path d="M44.5688 55H10.4309V45.3485H44.5688V55Z" fill="#212121"/>
<path d="M18.017 50.1747C18.017 51.2414 17.1678 52.1054 16.1204 52.1054C15.0731 52.1054 14.2239 51.2414 14.2239 50.1747C14.2239 49.1084 15.0731 48.2439 16.1204 48.2439C17.1678 48.2439 18.017 49.1084 18.017 50.1747Z" fill="white"/>
<path d="M39.8271 24.1151H41.7237V26.0459H39.8271V24.1151Z" fill="white"/>
<path d="M36.0342 24.1151H37.9307V26.0459H36.0342V24.1151Z" fill="white"/>
<path d="M32.2412 24.1151H34.1378V26.0459H32.2412V24.1151Z" fill="white"/>
<path d="M28.448 24.1151H30.3445V26.0459H28.448V24.1151Z" fill="white"/>
<path d="M24.655 24.1151H26.5516V26.0459H24.655V24.1151Z" fill="white"/>
<path d="M39.8271 27.9757H41.7237V29.9064H39.8271V27.9757Z" fill="white"/>
<path d="M36.0342 27.9757H37.9307V29.9064H36.0342V27.9757Z" fill="white"/>
<path d="M32.2412 27.9757H34.1378V29.9064H32.2412V27.9757Z" fill="white"/>
<path d="M28.448 27.9757H30.3445V29.9064H28.448V27.9757Z" fill="white"/>
<path d="M24.655 27.9757H26.5516V29.9064H24.655V27.9757Z" fill="white"/>
<path d="M20.8616 24.1151H22.7581V26.0459H20.8616V24.1151Z" fill="white"/>
<path d="M20.8616 27.9757H22.7581V29.9064H20.8616V27.9757Z" fill="white"/>
<path d="M39.8271 35.6969H41.7237V37.6277H39.8271V35.6969Z" fill="white"/>
<path d="M36.0342 35.6969H37.9307V37.6277H36.0342V35.6969Z" fill="white"/>
<path d="M32.2412 35.6969H34.1378V37.6277H32.2412V35.6969Z" fill="white"/>
<path d="M28.448 35.6969H30.3445V37.6277H28.448V35.6969Z" fill="white"/>
<path d="M24.655 35.6969H26.5516V37.6277H24.655V35.6969Z" fill="white"/>
<path d="M39.8271 39.5575H41.7237V41.4883H39.8271V39.5575Z" fill="white"/>
<path d="M36.0342 39.5575H37.9307V41.4883H36.0342V39.5575Z" fill="white"/>
<path d="M32.2412 39.5575H34.1378V41.4883H32.2412V39.5575Z" fill="white"/>
<path d="M28.448 39.5575H30.3445V41.4883H28.448V39.5575Z" fill="white"/>
<path d="M24.655 39.5575H26.5516V41.4883H24.655V39.5575Z" fill="white"/>
<path d="M20.8616 35.6969H22.7581V37.6277H20.8616V35.6969Z" fill="white"/>
<path d="M20.8616 39.5575H22.7581V41.4883H20.8616V39.5575Z" fill="white"/>
<path d="M39.8271 47.2787H41.7237V49.2095H39.8271V47.2787Z" fill="white"/>
<path d="M36.0342 47.2787H37.9307V49.2095H36.0342V47.2787Z" fill="white"/>
<path d="M32.2412 47.2787H34.1378V49.2095H32.2412V47.2787Z" fill="white"/>
<path d="M28.448 47.2787H30.3445V49.2095H28.448V47.2787Z" fill="white"/>
<path d="M24.655 47.2787H26.5516V49.2095H24.655V47.2787Z" fill="white"/>
<path d="M39.8271 51.1393H41.7237V53.0701H39.8271V51.1393Z" fill="white"/>
<path d="M36.0342 51.1393H37.9307V53.0701H36.0342V51.1393Z" fill="white"/>
<path d="M32.2412 51.1393H34.1378V53.0701H32.2412V51.1393Z" fill="white"/>
<path d="M28.448 51.1393H30.3445V53.0701H28.448V51.1393Z" fill="white"/>
<path d="M24.655 51.1393H26.5516V53.0701H24.655V51.1393Z" fill="white"/>
<path d="M20.8616 47.2787H22.7581V49.2095H20.8616V47.2787Z" fill="white"/>
<path d="M20.8616 51.1393H22.7581V53.0701H20.8616V51.1393Z" fill="white"/>
</svg>
