<svg width="300" height="300" viewBox="0 0 300 300" fill="none" xmlns="http://www.w3.org/2000/svg">
<path d="M78.5116 64.4302C102.465 78.2583 121.912 111.94 121.912 139.597C121.912 167.256 102.465 178.482 78.5116 164.654C54.5618 150.823 35.1152 117.144 35.1152 89.4845C35.1152 61.8283 54.5618 50.6022 78.5116 64.4302ZM243.076 132.852C273.556 150.451 298.299 193.311 298.299 228.505C298.299 263.699 273.556 277.985 243.076 260.389C212.596 242.791 187.853 199.93 187.853 164.737C187.853 129.543 212.596 115.257 243.076 132.852Z" fill="#0D7377"/>
<path d="M111.804 35.5232C130.178 46.131 145.097 71.968 145.097 93.1872C145.097 114.403 130.178 123.016 111.804 112.405C93.4299 101.797 78.5117 75.9602 78.5117 54.7445C78.5117 33.5288 93.4299 24.9153 111.804 35.5232Z" fill="#0D7377"/>
<path d="M187.853 17.7064C223.794 38.4611 252.976 89.002 252.976 130.504C252.976 172.006 223.794 188.854 187.853 168.103C151.909 147.352 122.73 96.8113 122.73 55.3057C122.73 13.8035 151.909 -3.04463 187.853 17.7064Z" fill="#0D7377"/>
<path d="M252.976 165.155L78.5117 64.4303V164.654L252.976 265.379V165.155Z" fill="#0D7377"/>
<path d="M284.464 245.997L249.349 266.269V282.992L284.464 262.716V245.997ZM142.788 12.5991L105.764 33.9756V43.7435L142.788 22.3706V12.5991ZM89.4912 32.5602L53.1537 53.5436V76.3533L89.4912 55.3735V32.5602ZM47.4602 61.8033L14.1462 81.0354V96.6398L47.4602 77.4077V61.8033Z" fill="#0D7377"/>
<path d="M43.3964 84.7024C67.3498 98.5305 86.7963 132.213 86.7963 159.872C86.7963 187.528 67.3498 198.755 43.3964 184.926C19.4465 171.098 0 137.416 0 109.76C0 82.1005 19.4465 70.8743 43.3964 84.7024ZM207.961 153.128C238.441 170.723 263.187 213.583 263.187 248.777C263.187 283.971 238.441 298.26 207.961 280.662C177.481 263.066 152.738 220.206 152.738 185.012C152.738 149.815 177.481 135.529 207.961 153.128Z" fill="#14FFEC"/>
<path d="M76.689 55.7953C95.0633 66.4031 109.981 92.2437 109.981 113.459C109.981 134.675 95.0633 143.289 76.689 132.681C58.3147 122.073 43.3965 96.2323 43.3965 75.0167C43.3965 53.801 58.3147 45.1875 76.689 55.7953Z" fill="#14FFEC"/>
<path d="M152.738 37.9821C188.679 58.7332 217.861 109.274 217.861 150.78C217.861 192.282 188.679 209.13 152.738 188.375C116.793 167.624 87.6147 117.083 87.6147 75.5813C87.6147 34.0792 116.793 17.2311 152.738 37.9821Z" fill="#14FFEC"/>
<path d="M217.861 185.43L43.3965 84.7024V184.926L217.861 285.651V185.43Z" fill="#14FFEC"/>
<path d="M55.5125 225.674C78.7475 213.616 116.475 213.616 139.71 225.674C162.945 237.733 162.945 257.312 139.71 269.371C116.475 281.43 78.7475 281.43 55.5125 269.371C32.2774 257.312 32.2774 237.733 55.5125 225.674Z" fill="#D0DBF7"/>
<path d="M62.3317 233.477L38.0852 220.892V248.967L62.3317 261.551V233.477ZM132.887 230.964L157.138 218.38V246.454L132.887 259.038V230.964ZM132.887 177.721L157.138 165.137V193.211L132.887 205.795V177.721Z" fill="#D0DBF7"/>
<path d="M55.5125 197.629C78.7475 185.57 116.475 185.57 139.71 197.629C162.945 209.688 162.945 229.266 139.71 241.325C116.475 253.384 78.7475 253.384 55.5125 241.325C32.2774 229.266 32.2774 209.688 55.5125 197.629Z" fill="white"/>
<path d="M62.3317 204.041L38.0852 191.46V219.534L62.3317 232.115V204.041ZM132.887 204.341L157.138 191.76V219.834L132.887 232.415V204.341Z" fill="white"/>
<path d="M55.5125 169.583C78.7475 157.524 116.475 157.524 139.71 169.583C162.945 181.642 162.945 201.221 139.71 213.28C116.475 225.339 78.7475 225.339 55.5125 213.28C32.2774 201.221 32.2774 181.642 55.5125 169.583Z" fill="#D0DBF7"/>
<path d="M62.3317 175.966L38.0852 163.386V191.46L62.3317 204.041V175.966Z" fill="#D0DBF7"/>
<path d="M62.3317 151.877L38.0852 139.293V167.367L62.3317 179.951V151.877ZM132.887 149.196L157.138 136.612V163.486L132.887 176.07V149.196Z" fill="white"/>
<path d="M55.5125 141.537C78.7475 129.478 116.475 129.478 139.71 141.537C162.945 153.593 162.945 173.175 139.71 185.234C116.475 197.293 78.7475 197.293 55.5125 185.234C32.2774 173.175 32.2774 153.593 55.5125 141.537Z" fill="white"/>
<path d="M55.5125 115.65C78.7475 103.591 116.475 103.591 139.71 115.65C162.945 127.709 162.945 147.292 139.71 159.347C116.475 171.406 78.7475 171.406 55.5125 159.347C32.2774 147.292 32.2774 127.709 55.5125 115.65Z" fill="#D0DBF7"/>
<path d="M111.776 181.07C111.775 180.202 111.429 179.37 110.816 178.756C110.202 178.142 109.37 177.797 108.502 177.796H86.2245C85.3754 177.824 84.5705 178.181 83.9798 178.792C83.3891 179.402 83.0588 180.219 83.0588 181.068C83.0588 181.918 83.3891 182.734 83.9798 183.345C84.5705 183.955 85.3754 184.312 86.2245 184.34H108.502C110.31 184.34 111.776 182.875 111.776 181.07ZM111.776 207.211C111.776 206.343 111.431 205.51 110.817 204.896C110.203 204.282 109.37 203.937 108.502 203.937H86.2245C85.3754 203.965 84.5705 204.322 83.9798 204.933C83.3891 205.543 83.0588 206.359 83.0588 207.209C83.0588 208.059 83.3891 208.875 83.9798 209.485C84.5705 210.096 85.3754 210.453 86.2245 210.481H108.502C110.31 210.481 111.776 209.016 111.776 207.211ZM111.776 236.811C111.776 235.943 111.431 235.11 110.817 234.496C110.203 233.882 109.37 233.537 108.502 233.537H86.2245C85.3754 233.565 84.5705 233.923 83.9798 234.533C83.3891 235.144 83.0588 235.96 83.0588 236.809C83.0588 237.659 83.3891 238.475 83.9798 239.086C84.5705 239.696 85.3754 240.053 86.2245 240.082H108.502C110.31 240.082 111.776 238.616 111.776 236.811ZM111.776 263.302C111.776 262.434 111.431 261.601 110.817 260.987C110.203 260.373 109.37 260.028 108.502 260.028H86.2245C85.3754 260.057 84.5705 260.414 83.9798 261.024C83.3891 261.635 83.0588 262.451 83.0588 263.3C83.0588 264.15 83.3891 264.966 83.9798 265.577C84.5705 266.187 85.3754 266.544 86.2245 266.573H108.502C110.31 266.573 111.776 265.107 111.776 263.302Z" fill="#212121"/>
</svg>
