<svg width="55" height="55" viewBox="0 0 55 55" fill="none" xmlns="http://www.w3.org/2000/svg">
<g clip-path="url(#clip0_50_66)">
<path d="M42.7877 11.2979C39.7902 5.79562 33.8983 2.29166 27.5 2.29166C19.376 2.29166 12.3292 7.94062 10.5485 15.6498C4.62917 16.2708 0 21.246 0 27.2708C0 33.1742 4.52146 38.9583 12.4827 38.9583C11.8204 37.9454 11.4583 36.7606 11.4583 35.5208C11.4583 32.3056 13.2183 31.1529 17.3158 27.0554C19.1263 25.2427 21.8235 24.711 24.1908 25.6919C25.8065 26.361 27.0165 27.6535 27.6283 29.221H37.2396C40.716 29.221 43.5417 32.0467 43.5417 35.5231C43.5417 36.7515 43.175 37.8904 42.5631 38.8621C49.5527 38.0646 55 32.1773 55 25.0479C55 18.0194 49.7131 12.1619 42.7877 11.2979Z" fill="#0D7377"/>
<path d="M33.4583 3.20833C21.764 -0.458335 12.3292 7.94062 10.5485 15.6498C4.62917 16.2708 0 21.246 0 27.2708C0 33.1742 4.52146 38.9583 12.4827 38.9583C11.8204 37.9454 11.4583 36.7606 11.4583 35.5208C11.4583 32.3056 13.2183 31.1529 17.3158 27.0554C18.5235 25.8454 20.1277 25.206 21.764 25.206C22.5798 25.206 23.4025 25.3642 24.1908 25.6919C25.701 26.3175 27.1627 27.8538 27.6211 29.2288H37.5833C39.0765 29.3021 40.1809 29.5341 41.7083 31.1667C43.5259 33.1094 43.2923 35.803 42.5608 38.8667C50.875 36.6667 53.625 31.625 54.0833 29.3333C54.4683 28.1036 54.6138 27.4005 54.725 26.125C55 22.9167 54.5114 20.9724 52.25 16.9583C50.3409 14.5486 48.7116 13.1101 45.375 11.9167L44.0917 11.5775C43.5417 11.4583 43.2984 11.3893 42.7808 11.2933C41.2489 8.61895 40.067 7.38771 37.5833 5.5C36.069 4.47543 35.155 3.98911 33.4583 3.20833Z" fill="#14FFEC"/>
<path d="M37.2396 33.8021H23.4896V31.5104C23.4896 29.9865 21.6356 29.2142 20.5562 30.2958L16.5458 34.3063C15.8744 34.9777 15.8744 36.0662 16.5458 36.7377L20.5562 40.7481C21.631 41.8229 23.4896 41.0712 23.4896 39.5335V37.2419H37.2396C38.1883 37.2419 38.9583 36.4719 38.9583 35.5231C38.9583 34.5721 38.1883 33.8021 37.2396 33.8021Z" fill="#0D7377"/>
<path d="M38.9583 35.5208H16.0416C16.0416 35.9608 16.2089 36.4008 16.5458 36.7354L20.5562 40.7458C20.9045 41.0942 21.3354 41.25 21.7593 41.25C22.6416 41.25 23.4918 40.5694 23.4918 39.529V37.2373H37.2418C38.1883 37.2396 38.9583 36.4696 38.9583 35.5208Z" fill="#0D7377"/>
<path d="M38.4541 45.7646L34.4437 41.7542C33.3552 40.6679 31.5104 41.4517 31.5104 42.9687V45.2604H17.7604C16.8116 45.2604 16.0416 46.0304 16.0416 46.9792C16.0416 47.9279 16.8116 48.6979 17.7604 48.6979H31.5104V50.9896C31.5104 52.5227 33.3689 53.2813 34.4437 52.2042L38.4541 48.1938C39.1256 47.5223 39.1256 46.436 38.4541 45.7646Z" fill="#0D7377"/>
<path d="M38.9583 46.9792H16.0416C16.0416 47.9279 16.8116 48.6979 17.7604 48.6979H31.5104V50.9896C31.5104 52.0277 32.3606 52.7083 33.2452 52.7083C33.6668 52.7083 34.0977 52.5525 34.446 52.2042L38.4564 48.1938C38.791 47.8592 38.9583 47.4192 38.9583 46.9792Z" fill="#0D7377"/>
</g>
<defs>
<clipPath id="clip0_50_66">
<rect width="55" height="55" fill="white"/>
</clipPath>
</defs>
</svg>
