<svg width="55" height="55" viewBox="0 0 55 55" fill="none" xmlns="http://www.w3.org/2000/svg">
<path d="M37.1136 52.3324H31.575V51.0433H37.1136C38.2778 51.042 39.3939 50.579 40.2171 49.7558C41.0402 48.9326 41.5033 47.8165 41.5046 46.6524V40.7314H42.7937V46.6524C42.792 48.1583 42.193 49.602 41.1281 50.6669C40.0633 51.7317 38.6195 52.3307 37.1136 52.3324Z" fill="#B0B5CA"/>
<path d="M31.652 50.2015V53.1738H28.1844C27.9893 53.1739 27.7961 53.1354 27.6158 53.0608C27.4356 52.9861 27.2718 52.8767 27.1338 52.7388C26.9958 52.6008 26.8864 52.437 26.8118 52.2567C26.7371 52.0765 26.6987 51.8833 26.6987 51.6882V51.686C26.6988 51.2923 26.8553 50.9148 27.1336 50.6364C27.412 50.358 27.7896 50.2015 28.1833 50.2015H31.652Z" fill="#14FFEC"/>
<path d="M39.8988 20.1759C39.8988 18.1126 37.3868 14.0218 32.6871 16.696C30.0842 18.1775 26.9861 19.9688 21.8905 17.6438L21.8642 17.6533C19.5555 20.7363 16.6504 20.6712 14.8242 20.165V25.2108L14.9424 37.4737C15.3246 40.5229 16.8031 43.3288 19.1021 45.368C21.4011 47.4072 24.3634 48.5403 27.4364 48.5559C30.5094 48.5715 33.4831 47.4686 35.8027 45.4529C38.1223 43.4372 39.6293 40.6464 40.0425 37.6013L40.2188 25.1978C39.9927 23.5336 39.8858 21.8553 39.8988 20.1759Z" fill="#FFD8B7"/>
<path d="M18.165 37.4737L18.0469 25.2108V20.2813C16.9793 20.5069 15.8727 20.467 14.8242 20.165V25.2108L14.9424 37.4737C15.1493 39.1258 15.6802 40.7208 16.5046 42.1674C17.329 43.6139 18.4308 44.8836 19.7467 45.9036C21.0626 46.9237 22.5669 47.674 24.1734 48.1117C25.7798 48.5494 27.4568 48.6658 29.1083 48.4542C26.3248 48.0967 23.7391 46.824 21.7581 44.8362C19.777 42.8484 18.5131 40.2584 18.165 37.4737Z" fill="#DDB99E"/>
<path d="M21.9281 17.7418L21.9249 17.7504C19.6314 20.813 16.7955 20.7475 14.9543 20.2447V25.257H12.8521C12.7489 25.257 12.6469 25.2603 12.5459 25.2656C11.7123 22.9775 10.9775 20.3414 10.9775 18.1532C10.9775 15.9822 11.7005 14.2538 13.7684 13.7446C14.7522 12.1032 16.1946 10.7853 17.9179 9.95319C19.6412 9.12103 21.5702 8.81092 23.4675 9.06104L23.9187 9.12012C24.6945 8.59408 25.5989 8.28907 26.5348 8.23779C27.4708 8.1865 28.4031 8.39088 29.2317 8.82901L29.7839 9.12012C30.8124 8.48614 32.029 8.22889 33.2261 8.39229C34.4232 8.55568 35.5264 9.1296 36.3474 10.016L38.1295 11.9399L38.5323 12.0055C39.1023 12.0989 39.6442 12.3185 40.1183 12.6484C40.5924 12.9782 40.9868 13.4099 41.2725 13.9118C41.5583 14.4137 41.7282 14.9732 41.7699 15.5493C41.8115 16.1253 41.7239 16.7034 41.5133 17.2412L42.71 17.311C43.4254 17.3529 43.8293 17.701 44.0968 18.237C44.3262 18.7087 44.4168 19.2359 44.3578 19.757L44.1784 21.5188C44.0636 22.6767 43.7009 23.7963 43.1149 24.8016C43.0183 24.9681 42.9162 25.1346 42.812 25.2989V25.3C42.5919 25.271 42.3701 25.2567 42.1481 25.257H40.1351C39.9114 23.6016 39.8051 21.9324 39.8171 20.2619C39.8171 18.2123 37.3217 14.1453 32.6531 16.8019C30.0675 18.2735 26.9898 20.0514 21.9281 17.7418Z" fill="#212121"/>
<path d="M14.1888 18.1532C14.1888 15.9822 14.9173 14.2538 16.9852 13.7446C17.7183 12.5224 18.7088 11.4744 19.8877 10.6735C21.0667 9.87253 22.4059 9.33786 23.8122 9.10658L23.4659 9.06104C21.5687 8.81093 19.6398 9.12105 17.9166 9.95321C16.1934 10.7854 14.7512 12.1033 13.7674 13.7446C11.6996 14.2538 10.9771 15.9822 10.9771 18.1532C10.9771 20.3414 11.7119 22.9711 12.5454 25.2592C12.6464 25.2538 12.7487 25.2441 12.8518 25.2441H14.9316V22.7569C14.5019 21.1787 14.1888 19.5723 14.1888 18.1532Z" fill="#212121"/>
<path d="M35.4492 31.2453C35.2782 31.2453 35.1143 31.1774 34.9934 31.0565C34.8725 30.9356 34.8046 30.7717 34.8046 30.6007C34.8046 30.1973 34.6444 29.8104 34.3591 29.5252C34.0739 29.2399 33.687 29.0796 33.2835 29.0796C32.8801 29.0796 32.4932 29.2399 32.208 29.5252C31.9227 29.8104 31.7625 30.1973 31.7625 30.6007C31.7625 30.7717 31.6945 30.9356 31.5737 31.0565C31.4528 31.1774 31.2889 31.2453 31.1179 31.2453C30.947 31.2453 30.783 31.1774 30.6622 31.0565C30.5413 30.9356 30.4734 30.7717 30.4734 30.6007C30.4734 29.8554 30.7695 29.1407 31.2965 28.6137C31.8235 28.0866 32.5382 27.7906 33.2835 27.7906C34.0288 27.7906 34.7436 28.0866 35.2706 28.6137C35.7976 29.1407 36.0937 29.8554 36.0937 30.6007C36.0937 30.7717 36.0258 30.9356 35.9049 31.0565C35.7841 31.1774 35.6201 31.2453 35.4492 31.2453Z" fill="#C1A08A"/>
<path d="M23.8987 31.2453C23.7278 31.2453 23.5639 31.1774 23.443 31.0565C23.3221 30.9356 23.2542 30.7717 23.2542 30.6007C23.2508 30.1995 23.0891 29.8159 22.8042 29.5334C22.5193 29.2508 22.1343 29.0923 21.7331 29.0923C21.3318 29.0923 20.9468 29.2508 20.6619 29.5334C20.377 29.8159 20.2153 30.1995 20.2119 30.6007C20.2119 30.7717 20.144 30.9356 20.0231 31.0565C19.9023 31.1774 19.7383 31.2453 19.5674 31.2453C19.3964 31.2453 19.2325 31.1774 19.1116 31.0565C18.9908 30.9356 18.9229 30.7717 18.9229 30.6007C18.9274 29.8584 19.2255 29.1481 19.7521 28.6248C20.2786 28.1015 20.9907 27.8078 21.7331 27.8078C22.4754 27.8078 23.1875 28.1015 23.7141 28.6248C24.2406 29.1481 24.5387 29.8584 24.5433 30.6007C24.5433 30.7717 24.4754 30.9356 24.3545 31.0565C24.2336 31.1774 24.0697 31.2453 23.8987 31.2453Z" fill="#C1A08A"/>
<path d="M27.5081 40.8508C26.753 40.8522 26.0051 40.7043 25.3074 40.4158C24.6096 40.1272 23.9757 39.7036 23.4422 39.1693C23.324 39.0479 23.2584 38.8849 23.2595 38.7155C23.2607 38.546 23.3285 38.3839 23.4483 38.2641C23.5681 38.1443 23.7302 38.0764 23.8996 38.0753C24.0691 38.0741 24.2321 38.1397 24.3536 38.2579C25.1909 39.0932 26.3254 39.5623 27.5082 39.5623C28.6909 39.5623 29.8254 39.0932 30.6628 38.2579C30.7224 38.1972 30.7935 38.149 30.8719 38.1159C30.9503 38.0829 31.0345 38.0657 31.1196 38.0654C31.2047 38.065 31.289 38.0815 31.3676 38.1139C31.4463 38.1463 31.5178 38.194 31.578 38.2541C31.6381 38.3143 31.6858 38.3858 31.7182 38.4645C31.7506 38.5431 31.7671 38.6274 31.7667 38.7125C31.7664 38.7976 31.7492 38.8818 31.7162 38.9602C31.6831 39.0386 31.6349 39.1097 31.5742 39.1693C31.0406 39.7036 30.4067 40.1271 29.7089 40.4157C29.0111 40.7042 28.2632 40.8521 27.5081 40.8508Z" fill="#C1A08A"/>
<path d="M45.3777 26.4889H44.0886V19.489C44.0886 10.342 36.647 2.90039 27.5 2.90039C18.353 2.90039 10.9114 10.342 10.9114 19.489V26.4889H9.62231V19.489C9.62231 9.63123 17.6422 1.61133 27.5 1.61133C37.3578 1.61133 45.3777 9.63123 45.3777 19.489V26.4889Z" fill="#14FFEC"/>
<path d="M44.7074 25.9499C44.1216 25.6053 43.4725 25.3821 42.7987 25.2936C42.5832 25.2624 42.3658 25.2459 42.148 25.2441H39.9609V40.9277H42.1491C45.0044 40.9277 47.2656 38.5816 47.2656 35.7264V30.4272C47.271 29.5218 47.0372 28.631 46.588 27.8449C46.1388 27.0587 45.4901 26.405 44.7074 25.9499Z" fill="#0D7377"/>
<path d="M12.5402 25.2592C11.7464 25.3067 10.9751 25.5419 10.2899 25.9456C9.50745 26.4016 8.85913 27.056 8.41044 27.8427C7.96175 28.6294 7.72858 29.5205 7.73448 30.4262V35.7264C7.73448 38.5816 9.99679 40.9277 12.8521 40.9277H15.0392V25.2441H12.8408C12.7377 25.2441 12.6412 25.2538 12.5402 25.2592Z" fill="#0D7377"/>
<path d="M12.47 28.7711C12.299 28.7711 12.1351 28.7032 12.0142 28.5823C11.8933 28.4615 11.8254 28.2975 11.8254 28.1266V27.6647C11.8254 27.4937 11.8933 27.3298 12.0142 27.2089C12.1351 27.0881 12.299 27.0201 12.47 27.0201C12.6409 27.0201 12.8048 27.0881 12.9257 27.2089C13.0466 27.3298 13.1145 27.4937 13.1145 27.6647V28.1266C13.1145 28.2975 13.0466 28.4615 12.9257 28.5823C12.8048 28.7032 12.6409 28.7711 12.47 28.7711Z" fill="#F4F8FC"/>
<path d="M12.47 37.0426C12.299 37.0426 12.1351 36.9747 12.0142 36.8538C11.8933 36.733 11.8254 36.569 11.8254 36.3981V30.3825C11.8254 30.2115 11.8933 30.0476 12.0142 29.9267C12.1351 29.8058 12.299 29.7379 12.47 29.7379C12.6409 29.7379 12.8048 29.8058 12.9257 29.9267C13.0466 30.0476 13.1145 30.2115 13.1145 30.3825V36.3981C13.1145 36.569 13.0466 36.733 12.9257 36.8538C12.8048 36.9747 12.6409 37.0426 12.47 37.0426Z" fill="#F4F8FC"/>
</svg>
