<svg width="18" height="17" viewBox="0 0 18 17" fill="none" xmlns="http://www.w3.org/2000/svg">
<path fill-rule="evenodd" clip-rule="evenodd" d="M2.0332 9.4C2.0332 7.15979 2.0332 6.03969 2.46918 5.18404C2.85267 4.43139 3.46459 3.81947 4.21724 3.43597C5.07289 3 6.19299 3 8.4332 3H10.2893C11.4552 3 12.0381 3 12.5181 3.12062C13.9474 3.4798 15.0634 4.59582 15.4226 6.02512C15.5432 6.5051 15.5432 7.08803 15.5432 8.25389C15.5432 9.41975 15.5432 10.0027 15.4226 10.4827C15.0634 11.912 13.9474 13.028 12.5181 13.3872C12.0381 13.5078 11.4552 13.5078 10.2893 13.5078H5.44964C5.18442 13.5078 4.93007 13.6131 4.74253 13.8007L3.74031 14.8029C3.11035 15.4329 2.0332 14.9867 2.0332 14.0958V13.5078V9.755V9.4ZM6.5365 5.75257C5.98421 5.75257 5.5365 6.20028 5.5365 6.75257C5.5365 7.30485 5.98421 7.75257 6.5365 7.75257H11.0398C11.5921 7.75257 12.0398 7.30485 12.0398 6.75257C12.0398 6.20028 11.5921 5.75257 11.0398 5.75257H6.5365ZM6.5365 8.75479C5.98421 8.75479 5.5365 9.20251 5.5365 9.75479C5.5365 10.3071 5.98421 10.7548 6.5365 10.7548H8.78816C9.34045 10.7548 9.78816 10.3071 9.78816 9.75479C9.78816 9.20251 9.34045 8.75479 8.78816 8.75479H6.5365Z" fill="#14FFEC"/>
</svg>
