<svg width="19" height="17" viewBox="0 0 19 17" fill="none" xmlns="http://www.w3.org/2000/svg">
<path fill-rule="evenodd" clip-rule="evenodd" d="M3.091 6.76347C4.2139 5.33403 6.23603 3.54175 9.31646 3.54175C12.3969 3.54175 14.419 5.33403 15.5419 6.76347C16.0467 7.40603 16.2991 7.72732 16.2812 8.44663C16.2633 9.16595 15.9788 9.49329 15.4097 10.148C14.1556 11.5908 12.0118 13.4584 9.31646 13.4584C6.62117 13.4584 4.47727 11.5908 3.22317 10.148C2.65411 9.49329 2.36958 9.16595 2.35172 8.44663C2.33385 7.72732 2.58623 7.40603 3.091 6.76347ZM9.31646 11.3334C10.9334 11.3334 12.2442 10.0649 12.2442 8.50008C12.2442 6.93527 10.9334 5.66675 9.31646 5.66675C7.69949 5.66675 6.38868 6.93527 6.38868 8.50008C6.38868 10.0649 7.69949 11.3334 9.31646 11.3334Z" fill="#14FFEC"/>
</svg>
