<svg width="107" height="72" viewBox="0 0 107 72" fill="none" xmlns="http://www.w3.org/2000/svg">
<path d="M44.5 36.0901C44.5 21.0901 61 17.5901 69.5 27.5901" stroke="#14FFEC" stroke-width="2" stroke-linecap="round"/>
<path d="M24.2 35.17C24.52 35.3834 24.7067 35.6634 24.76 36.01C24.8133 36.33 24.7333 36.65 24.52 36.97C24.3333 37.21 24.0933 37.3434 23.8 37.37C23.5067 37.3967 23.2267 37.3434 22.96 37.21C21.9467 36.5434 20.8533 36.0234 19.68 35.65C18.5333 35.2767 17.2933 35.09 15.96 35.09C14.3333 35.09 12.8133 35.3834 11.4 35.97C10.0133 36.53 8.8 37.3567 7.76 38.45C6.72 39.5167 5.90667 40.7834 5.32 42.25C4.76 43.7167 4.48 45.33 4.48 47.09C4.48 48.9034 4.77333 50.5567 5.36 52.05C5.94667 53.5167 6.76 54.7834 7.8 55.85C8.86667 56.9167 10.0933 57.73 11.48 58.29C12.8667 58.85 14.36 59.13 15.96 59.13C17.2667 59.13 18.4933 58.9434 19.64 58.57C20.8133 58.1967 21.9067 57.69 22.92 57.05C23.1867 56.89 23.4667 56.8367 23.76 56.89C24.08 56.9167 24.3333 57.0634 24.52 57.33C24.76 57.6234 24.84 57.9434 24.76 58.29C24.7067 58.61 24.5333 58.8634 24.24 59.05C23.5733 59.4767 22.7867 59.8767 21.88 60.25C20.9733 60.6234 20.0133 60.9167 19 61.13C17.9867 61.37 16.9733 61.49 15.96 61.49C14.04 61.49 12.24 61.1434 10.56 60.45C8.88 59.7567 7.38667 58.7834 6.08 57.53C4.77333 56.25 3.74667 54.73 3 52.97C2.28 51.21 1.92 49.25 1.92 47.09C1.92 45.01 2.28 43.1034 3 41.37C3.72 39.61 4.72 38.09 6 36.81C7.28 35.53 8.77333 34.53 10.48 33.81C12.1867 33.09 14.0133 32.73 15.96 32.73C17.48 32.73 18.9467 32.9434 20.36 33.37C21.7733 33.7967 23.0533 34.3967 24.2 35.17Z" fill="#14FFEC"/>
<path d="M19 28.0901C18.5 17.59 28.7104 9.41388 41 13.09C54.3865 -6.21754 76.0341 -1.3135 81.5 20.09C107.936 17.5599 117.5 54.09 85 61.09" stroke="#14FFEC" stroke-width="2" stroke-linecap="round"/>
<path d="M28.35 60.19C28.35 60.43 28.26 60.64 28.08 60.82C27.9 61 27.69 61.09 27.45 61.09C27.19 61.09 26.97 61 26.79 60.82C26.63 60.64 26.55 60.43 26.55 60.19V39.79C26.55 39.55 26.64 39.34 26.82 39.16C27 38.98 27.21 38.89 27.45 38.89C27.71 38.89 27.92 38.98 28.08 39.16C28.26 39.34 28.35 39.55 28.35 39.79V60.19Z" fill="#14FFEC"/>
<path d="M46.65 53.41C46.65 54.93 46.32 56.3 45.66 57.52C45 58.72 44.1 59.67 42.96 60.37C41.82 61.05 40.52 61.39 39.06 61.39C37.64 61.39 36.35 61.05 35.19 60.37C34.05 59.67 33.14 58.72 32.46 57.52C31.8 56.3 31.47 54.93 31.47 53.41C31.47 51.87 31.8 50.5 32.46 49.3C33.14 48.1 34.05 47.15 35.19 46.45C36.35 45.75 37.64 45.4 39.06 45.4C40.52 45.4 41.82 45.75 42.96 46.45C44.1 47.15 45 48.1 45.66 49.3C46.32 50.5 46.65 51.87 46.65 53.41ZM44.85 53.41C44.85 52.19 44.6 51.11 44.1 50.17C43.6 49.21 42.91 48.46 42.03 47.92C41.17 47.36 40.18 47.08 39.06 47.08C37.98 47.08 37 47.36 36.12 47.92C35.24 48.46 34.54 49.21 34.02 50.17C33.52 51.11 33.27 52.19 33.27 53.41C33.27 54.63 33.52 55.71 34.02 56.65C34.54 57.59 35.24 58.34 36.12 58.9C37 59.44 37.98 59.71 39.06 59.71C40.18 59.71 41.17 59.44 42.03 58.9C42.91 58.34 43.6 57.59 44.1 56.65C44.6 55.71 44.85 54.63 44.85 53.41Z" fill="#14FFEC"/>
<path d="M61.83 45.85C62.09 45.85 62.3 45.94 62.46 46.12C62.64 46.3 62.73 46.51 62.73 46.75V55.21C62.73 57.19 62.17 58.7 61.05 59.74C59.93 60.78 58.42 61.3 56.52 61.3C54.64 61.3 53.14 60.78 52.02 59.74C50.92 58.7 50.37 57.19 50.37 55.21V46.75C50.37 46.51 50.45 46.3 50.61 46.12C50.79 45.94 51.01 45.85 51.27 45.85C51.53 45.85 51.74 45.94 51.9 46.12C52.08 46.3 52.17 46.51 52.17 46.75V55.21C52.17 56.65 52.55 57.75 53.31 58.51C54.09 59.25 55.16 59.62 56.52 59.62C57.9 59.62 58.98 59.25 59.76 58.51C60.54 57.75 60.93 56.65 60.93 55.21V46.75C60.93 46.51 61.01 46.3 61.17 46.12C61.33 45.94 61.55 45.85 61.83 45.85ZM80.0201 38.89C80.2801 38.89 80.4901 38.98 80.6501 39.16C80.8301 39.32 80.9201 39.53 80.9201 39.79V60.19C80.9201 60.43 80.8301 60.64 80.6501 60.82C80.4701 61 80.2601 61.09 80.0201 61.09C79.7601 61.09 79.5401 61 79.3601 60.82C79.2001 60.64 79.1201 60.43 79.1201 60.19V56.62L79.6301 56.2C79.6301 56.76 79.4801 57.35 79.1801 57.97C78.8801 58.57 78.4501 59.13 77.8901 59.65C77.3501 60.17 76.7101 60.59 75.9701 60.91C75.2501 61.23 74.4701 61.39 73.6301 61.39C72.2901 61.39 71.0801 61.04 70.0001 60.34C68.9401 59.64 68.1001 58.69 67.4801 57.49C66.8601 56.29 66.5501 54.92 66.5501 53.38C66.5501 51.86 66.8601 50.5 67.4801 49.3C68.1001 48.08 68.9401 47.13 70.0001 46.45C71.0601 45.75 72.2601 45.4 73.6001 45.4C74.4201 45.4 75.2001 45.55 75.9401 45.85C76.6801 46.15 77.3301 46.56 77.8901 47.08C78.4701 47.6 78.9201 48.2 79.2401 48.88C79.5801 49.54 79.7501 50.23 79.7501 50.95L79.1201 50.5V39.79C79.1201 39.55 79.2001 39.34 79.3601 39.16C79.5401 38.98 79.7601 38.89 80.0201 38.89ZM73.7801 59.71C74.8601 59.71 75.8001 59.44 76.6001 58.9C77.4201 58.34 78.0601 57.59 78.5201 56.65C79.0001 55.69 79.2401 54.6 79.2401 53.38C79.2401 52.18 79.0001 51.11 78.5201 50.17C78.0601 49.21 77.4201 48.46 76.6001 47.92C75.7801 47.36 74.8401 47.08 73.7801 47.08C72.7401 47.08 71.8001 47.36 70.9601 47.92C70.1401 48.46 69.4901 49.21 69.0101 50.17C68.5501 51.11 68.3201 52.18 68.3201 53.38C68.3201 54.58 68.5501 55.66 69.0101 56.62C69.4901 57.58 70.1401 58.34 70.9601 58.9C71.8001 59.44 72.7401 59.71 73.7801 59.71Z" fill="#14FFEC"/>
<path d="M76.583 28.6081C70.28 27.152 67.9159 28.2002 65.8735 33.7614" stroke="#14FFEC" stroke-width="2" stroke-linecap="round"/>
</svg>
