<svg width="322" height="385" viewBox="0 0 322 385" fill="none" xmlns="http://www.w3.org/2000/svg">
<path d="M166.353 116.458C166.353 114.117 164.928 111.393 163.172 110.379L65.5846 54.0369C62.6582 52.3467 60.2814 54.1439 60.2814 58.0461V259.976C60.2814 263.098 62.1827 266.731 64.5243 268.083L151.503 318.3C159.699 323.032 166.353 318.002 166.353 307.073V116.458Z" fill="#14FFEC" fill-opacity="0.2"/>
<path d="M261.484 59.9175C261.484 58.4685 260.602 57.8012 259.516 58.4288L164.995 113C163.909 113.628 163.026 115.313 163.026 116.762V310.786C163.026 318.756 167.879 322.425 173.856 318.973L259.516 269.518C260.602 268.891 261.484 267.205 261.484 265.756V59.9175Z" fill="#0D7377"/>
<path d="M169.87 2.85608C163.891 -0.596062 154.833 -0.97123 149.654 2.01813L64.3101 51.2916C59.1326 54.281 59.7826 59.5109 65.7621 62.963L152.43 113C158.408 116.452 167.467 116.828 172.645 113.838L257.989 64.5648C263.168 61.5754 262.517 56.3455 256.538 52.8934L169.87 2.85608Z" fill="#14FFEC"/>
<path d="M169.87 208.69C163.891 205.238 154.833 204.862 149.654 207.853L64.3101 257.126C59.1326 260.115 59.7826 265.345 65.7621 268.797L152.43 318.835C158.408 322.287 167.467 322.663 172.645 319.673L257.989 270.399C263.168 267.41 262.517 262.18 256.538 258.728L169.87 208.69Z" fill="#0D7377"/>
<path d="M161.394 167.679L60.8153 109.61V121.064L161.394 179.132V167.679ZM256.525 112.755L161.394 167.679V179.132L256.525 124.209V112.755Z" fill="#14FFA0" fill-opacity="0.8"/>
<path d="M142.962 207.258C142.962 206.585 142.553 205.804 142.049 205.512L75.7315 167.224C75.2275 166.933 74.8179 167.242 74.8179 167.915V189.833C74.8179 190.505 75.2275 191.287 75.7315 191.578L142.049 229.867C142.553 230.157 142.962 229.848 142.962 229.176V207.258ZM142.962 254.48C142.962 253.808 142.553 253.026 142.049 252.735L75.7315 214.446C75.2275 214.155 74.8179 214.465 74.8179 215.136V237.055C74.8179 237.727 75.2275 238.509 75.7315 238.8L142.049 277.088C142.553 277.38 142.962 277.07 142.962 276.398V254.48Z" fill="#14FFEC"/>
<path d="M138.469 111.73C140.949 113.161 142.962 117.667 142.962 121.786C142.962 125.903 140.949 128.085 138.469 126.653C135.99 125.221 133.976 120.716 133.976 116.598C133.976 112.479 135.99 110.298 138.469 111.73ZM138.469 132.698C140.949 134.129 142.962 138.634 142.962 142.753C142.962 146.871 140.949 149.052 138.469 147.621C135.99 146.189 133.976 141.683 133.976 137.565C133.976 133.447 135.99 131.266 138.469 132.698Z" fill="#EDEEF0"/>
<path d="M43.904 367.116V367.98C43.904 369.528 44.186 370.584 44.75 371.148C45.314 371.7 46.376 371.976 47.936 371.976H50.888C52.112 371.976 53.018 371.862 53.606 371.634C54.194 371.406 54.584 371.004 54.776 370.428C54.908 369.972 55.088 369.624 55.316 369.384C55.556 369.144 55.916 369.024 56.396 369.024C56.9 369.024 57.284 369.156 57.548 369.42C57.812 369.684 57.896 370.068 57.8 370.572C57.536 372.06 56.828 373.17 55.676 373.902C54.524 374.634 52.928 375 50.888 375H47.936C45.548 375 43.772 374.424 42.608 373.272C41.456 372.12 40.88 370.356 40.88 367.98V363.804C40.88 361.368 41.456 359.58 42.608 358.44C43.772 357.288 45.548 356.724 47.936 356.748H50.888C53.288 356.748 55.064 357.324 56.216 358.476C57.368 359.616 57.944 361.392 57.944 363.804V365.604C57.944 366.612 57.44 367.116 56.432 367.116H43.904ZM47.936 359.772C46.376 359.748 45.314 360.018 44.75 360.582C44.186 361.146 43.904 362.22 43.904 363.804V364.092H54.92V363.804C54.92 362.232 54.638 361.17 54.074 360.618C53.522 360.054 52.46 359.772 50.888 359.772H47.936ZM62.3546 374.64C61.5626 374.028 61.4546 373.32 62.0306 372.516L67.3586 365.01L62.9306 359.232C62.2946 358.44 62.3906 357.744 63.2186 357.144C63.9986 356.508 64.6946 356.592 65.3066 357.396L69.4826 362.832L73.5866 357.396C74.1866 356.568 74.8946 356.472 75.7106 357.108C76.5026 357.708 76.5986 358.416 75.9986 359.232L71.3726 365.316L76.8626 372.48C77.4506 373.284 77.3666 373.992 76.6106 374.604C75.7946 375.24 75.0866 375.144 74.4866 374.316L69.2846 367.53L64.4786 374.28C63.8786 375.108 63.1706 375.228 62.3546 374.64ZM87.5788 375C85.5628 375 84.0628 374.508 83.0788 373.524C82.0948 372.54 81.6028 371.04 81.6028 369.024C81.6028 367.008 82.0888 365.508 83.0608 364.524C84.0448 363.54 85.5508 363.048 87.5788 363.048H95.1928C95.1208 361.788 94.7908 360.93 94.2028 360.474C93.6148 360.006 92.6068 359.772 91.1788 359.772H89.0908C87.8908 359.772 86.9968 359.856 86.4088 360.024C85.8208 360.18 85.4068 360.468 85.1668 360.888C84.9508 361.392 84.7288 361.74 84.5008 361.932C84.2728 362.124 83.9308 362.22 83.4748 362.22C82.9708 362.22 82.5748 362.082 82.2868 361.806C81.9988 361.518 81.9148 361.14 82.0348 360.672C82.3948 359.316 83.1448 358.326 84.2848 357.702C85.4368 357.066 87.0388 356.748 89.0908 356.748H91.1788C93.5788 356.748 95.3548 357.324 96.5068 358.476C97.6588 359.628 98.2348 361.404 98.2348 363.804V373.488C98.2348 374.496 97.7308 375 96.7227 375C95.7148 375 95.2108 374.496 95.2108 373.488V372.678C93.9268 374.226 92.0548 375 89.5948 375H87.5788ZM87.5788 371.976H89.5948C90.4828 371.976 91.3168 371.898 92.0968 371.742C92.8768 371.574 93.5428 371.274 94.0948 370.842C94.6588 370.41 95.0308 369.792 95.2108 368.988V366.072H87.5788C86.3908 366.072 85.5988 366.27 85.2028 366.666C84.8188 367.062 84.6268 367.848 84.6268 369.024C84.6268 370.212 84.8188 371.004 85.2028 371.4C85.5988 371.784 86.3908 371.976 87.5788 371.976ZM125.357 356.748C127.625 356.748 129.251 357.282 130.235 358.35C131.231 359.418 131.729 361.188 131.729 363.66V373.488C131.729 374.496 131.225 375 130.217 375C129.209 375 128.705 374.496 128.705 373.488V363.66C128.705 362.292 128.441 361.302 127.913 360.69C127.397 360.078 126.545 359.772 125.357 359.772H123.881C122.513 359.772 121.535 360.078 120.947 360.69C120.359 361.302 120.065 362.292 120.065 363.66V373.488C120.065 374.496 119.561 375 118.553 375C117.545 375 117.041 374.496 117.041 373.488V363.66C117.041 362.292 116.777 361.302 116.249 360.69C115.733 360.078 114.881 359.772 113.693 359.772H112.217C110.849 359.772 109.871 360.078 109.283 360.69C108.695 361.302 108.401 362.292 108.401 363.66V373.488C108.401 374.496 107.897 375 106.889 375C105.881 375 105.377 374.496 105.377 373.488V358.26C105.377 357.252 105.881 356.748 106.889 356.748C107.897 356.748 108.401 357.252 108.401 358.26V359.088C109.037 358.26 109.733 357.666 110.489 357.306C111.257 356.934 112.169 356.748 113.225 356.748H113.693C115.181 356.748 116.351 356.958 117.203 357.378C118.055 357.786 118.703 358.452 119.147 359.376C119.783 358.428 120.455 357.756 121.163 357.36C121.883 356.952 122.789 356.748 123.881 356.748H125.357ZM140.358 382.2C139.35 382.2 138.846 381.696 138.846 380.688V358.26C138.846 357.252 139.35 356.748 140.358 356.748C141.366 356.748 141.87 357.252 141.87 358.26V358.71C142.518 358.062 143.316 357.576 144.264 357.252C145.224 356.916 146.298 356.748 147.486 356.748H148.854C151.254 356.748 153.03 357.324 154.182 358.476C155.334 359.628 155.91 361.404 155.91 363.804V367.944C155.91 370.332 155.334 372.108 154.182 373.272C153.03 374.424 151.254 375 148.854 375H141.87V380.688C141.87 381.696 141.366 382.2 140.358 382.2ZM141.87 371.976H148.854C150.426 371.976 151.488 371.694 152.04 371.13C152.604 370.566 152.886 369.504 152.886 367.944V363.804C152.886 362.232 152.604 361.17 152.04 360.618C151.488 360.054 150.426 359.772 148.854 359.772H147.486C145.986 359.772 144.69 359.952 143.598 360.312C142.506 360.672 141.93 361.242 141.87 362.022V371.976ZM167.977 375C166.141 375 164.773 374.55 163.873 373.65C162.985 372.738 162.541 371.364 162.541 369.528V351.168C162.541 350.16 163.045 349.656 164.053 349.656C165.061 349.656 165.565 350.16 165.565 351.168V369.528C165.565 370.5 165.721 371.154 166.033 371.49C166.357 371.814 167.005 371.976 167.977 371.976C169.009 371.976 169.525 372.48 169.525 373.488C169.561 374.496 169.045 375 167.977 375ZM176.338 367.116V367.98C176.338 369.528 176.62 370.584 177.184 371.148C177.748 371.7 178.81 371.976 180.37 371.976H183.322C184.546 371.976 185.452 371.862 186.04 371.634C186.628 371.406 187.018 371.004 187.21 370.428C187.342 369.972 187.522 369.624 187.75 369.384C187.99 369.144 188.35 369.024 188.83 369.024C189.334 369.024 189.718 369.156 189.982 369.42C190.246 369.684 190.33 370.068 190.234 370.572C189.97 372.06 189.262 373.17 188.11 373.902C186.958 374.634 185.362 375 183.322 375H180.37C177.982 375 176.206 374.424 175.042 373.272C173.89 372.12 173.314 370.356 173.314 367.98V363.804C173.314 361.368 173.89 359.58 175.042 358.44C176.206 357.288 177.982 356.724 180.37 356.748H183.322C185.722 356.748 187.498 357.324 188.65 358.476C189.802 359.616 190.378 361.392 190.378 363.804V365.604C190.378 366.612 189.874 367.116 188.866 367.116H176.338ZM180.37 359.772C178.81 359.748 177.748 360.018 177.184 360.582C176.62 361.146 176.338 362.22 176.338 363.804V364.092H187.354V363.804C187.354 362.232 187.072 361.17 186.508 360.618C185.956 360.054 184.894 359.772 183.322 359.772H180.37ZM209.322 353.796C208.182 353.796 207.612 353.22 207.612 352.068V351.006C207.612 349.878 208.182 349.314 209.322 349.314H210.366C211.458 349.314 212.004 349.878 212.004 351.006V352.068C212.004 353.22 211.458 353.796 210.366 353.796H209.322ZM209.826 375C208.818 375 208.314 374.496 208.314 373.488V358.26C208.314 357.252 208.818 356.748 209.826 356.748C210.834 356.748 211.338 357.252 211.338 358.26V373.488C211.338 374.496 210.834 375 209.826 375ZM225.018 375C222.63 375 220.854 374.424 219.69 373.272C218.538 372.108 217.962 370.332 217.962 367.944V363.768C217.962 361.368 218.532 359.592 219.672 358.44C220.824 357.288 222.606 356.724 225.018 356.748H227.97C229.758 356.748 231.162 357.048 232.182 357.648C233.214 358.248 233.874 359.172 234.162 360.42C234.27 360.924 234.18 361.314 233.892 361.59C233.616 361.866 233.214 362.004 232.686 362.004C232.218 362.004 231.876 361.884 231.66 361.644C231.444 361.404 231.246 361.068 231.066 360.636C230.886 360.312 230.556 360.09 230.076 359.97C229.596 359.838 228.894 359.772 227.97 359.772H225.018C223.47 359.748 222.408 360.018 221.832 360.582C221.268 361.134 220.986 362.196 220.986 363.768V367.944C220.986 369.504 221.268 370.566 221.832 371.13C222.408 371.694 223.47 371.976 225.018 371.976H227.97C228.894 371.976 229.596 371.916 230.076 371.796C230.556 371.664 230.886 371.436 231.066 371.112C231.246 370.656 231.444 370.314 231.66 370.086C231.888 369.858 232.242 369.744 232.722 369.744C233.226 369.744 233.616 369.882 233.892 370.158C234.18 370.434 234.27 370.824 234.162 371.328C233.874 372.564 233.214 373.488 232.182 374.1C231.162 374.7 229.758 375 227.97 375H225.018ZM246.639 375C244.251 375 242.475 374.424 241.311 373.272C240.159 372.12 239.583 370.356 239.583 367.98V363.804C239.583 361.392 240.159 359.616 241.311 358.476C242.475 357.324 244.251 356.748 246.639 356.748H249.591C251.991 356.748 253.767 357.324 254.919 358.476C256.071 359.628 256.647 361.404 256.647 363.804V367.944C256.647 370.332 256.071 372.108 254.919 373.272C253.767 374.424 251.991 375 249.591 375H246.639ZM242.607 367.98C242.607 369.528 242.889 370.584 243.453 371.148C244.017 371.7 245.079 371.976 246.639 371.976H249.591C251.163 371.976 252.225 371.694 252.777 371.13C253.341 370.566 253.623 369.504 253.623 367.944V363.804C253.623 362.232 253.341 361.17 252.777 360.618C252.225 360.054 251.163 359.772 249.591 359.772H246.639C245.595 359.772 244.779 359.892 244.191 360.132C243.615 360.36 243.207 360.768 242.967 361.356C242.727 361.932 242.607 362.748 242.607 363.804V367.98ZM264.776 375C263.768 375 263.264 374.496 263.264 373.488V358.26C263.264 357.252 263.768 356.748 264.776 356.748C265.784 356.748 266.288 357.252 266.288 358.26V358.854C267.56 357.45 269.432 356.748 271.904 356.748H272.912C275.312 356.748 277.088 357.324 278.24 358.476C279.392 359.628 279.968 361.404 279.968 363.804V373.488C279.968 374.496 279.464 375 278.456 375C277.448 375 276.944 374.496 276.944 373.488V363.804C276.944 362.232 276.656 361.17 276.08 360.618C275.516 360.054 274.46 359.772 272.912 359.772H271.904C270.464 359.772 269.21 359.94 268.142 360.276C267.074 360.6 266.456 361.116 266.288 361.824V373.488C266.288 374.496 265.784 375 264.776 375Z" fill="#14FFEC"/>
</svg>
